<?xml version="1.0" encoding="UTF-8"?>
<svg width="24" height="24" viewBox="0 0 48 48" fill="none" xmlns="http://www.w3.org/2000/svg">
    <path d="M8.95 32.15C7.4 28.45 7 25.85 7 24.05C7 22.25 7.3 19.9 8.95 15.85C10.6 11.8 14.25 4.85 24.05 4.85C33.85 4.85 37.5 11.8 39.15 15.85C40.8 19.9 41 22.25 41 24.05C41 25.85 40.6 28.45 39.05 32.15C37.5 35.85 34.25 39.15 31.75 40.5C29.25 41.85 27.5 41.5 24.05 41.5C20.6 41.5 18.85 41.85 16.35 40.5C13.85 39.15 10.5 35.85 8.95 32.15Z" fill="#00FF9D"/>
    <path d="M24.05 4.85C14.25 4.85 10.6 11.8 8.95 15.85C7.3 19.9 7 22.25 7 24.05C7 25.85 7.4 28.45 8.95 32.15C10.5 35.85 13.85 39.15 16.35 40.5C18.85 41.85 20.6 41.5 24.05 41.5C27.5 41.5 29.25 41.85 31.75 40.5C34.25 39.15 37.5 35.85 39.05 32.15C40.6 28.45 41 25.85 41 24.05C41 22.25 40.8 19.9 39.15 15.85C37.5 11.8 33.85 4.85 24.05 4.85ZM24.05 7.85C32.85 7.85 35.9 14.1 37.25 17.5C38.6 20.9 38.9 22.85 38.9 24.05C38.9 25.25 38.5 27.45 37.15 30.75C35.8 34.05 33.05 36.85 31.05 37.95C29.05 39.05 27.5 38.5 24.05 38.5C20.6 38.5 19.05 39.05 17.05 37.95C15.05 36.85 12.3 34.05 10.95 30.75C9.6 27.45 9.2 25.25 9.2 24.05C9.2 22.85 9.5 20.9 10.85 17.5C12.2 14.1 15.25 7.85 24.05 7.85Z" fill="white"/>
</svg> 